<svg height="512" viewBox="0 0 512 512" width="512" xmlns="http://www.w3.org/2000/svg" xmlns:xlink="http://www.w3.org/1999/xlink"><linearGradient id="New_Gradient_Swatch_6" gradientUnits="userSpaceOnUse" x1="132.374" x2="379.626" y1="608.374" y2="361.123"><stop offset="0" stop-color="#fad985"/><stop offset="1" stop-color="#fdf2d6"/></linearGradient><linearGradient id="New_Gradient_Swatch_6-2" x1="319.524" x2="386.948" xlink:href="#New_Gradient_Swatch_6" y1="289.72" y2="222.296"/><linearGradient id="New_Gradient_Swatch_6-3" x1="129.044" x2="188.484" xlink:href="#New_Gradient_Swatch_6" y1="285.728" y2="226.288"/><linearGradient id="linear-gradient" gradientUnits="userSpaceOnUse" x1="162.504" x2="349.496" y1="331.517" y2="144.525"><stop offset="0" stop-color="#fce5ad"/><stop offset="1" stop-color="#fef5de"/></linearGradient><linearGradient id="linear-gradient-2" gradientUnits="userSpaceOnUse" x1="123.514" x2="172.485" y1="224.486" y2="175.515"><stop offset="0" stop-color="#857a6b"/><stop offset="1" stop-color="#a39b90"/></linearGradient><linearGradient id="linear-gradient-3" x1="160.823" x2="333.812" xlink:href="#linear-gradient-2" y1="227.177" y2="54.188"/><g id="_19-shaving" data-name="19-shaving"><g id="gradient"><g id="gradient-2" data-name="gradient"><path d="m444.644 433.665-128.644-38.593v-87.072a12 12 0 0 0 -12-12h-96a12 12 0 0 0 -12 12v87.072l-128.644 38.593a43.729 43.729 0 0 0 -31.356 42.144v36.191h440v-36.191a43.73 43.73 0 0 0 -31.356-42.144z" fill="url(#New_Gradient_Swatch_6)"/><path d="m388.683 224.03c-8.306-8.241-20.085-8.148-32.544-8.051-1.355.01-2.736.021-4.139.021a44 44 0 0 0 0 88c27.3 0 44-38.847 44-60 0-8.433-2.462-15.152-7.317-19.97z" fill="url(#New_Gradient_Swatch_6-2)"/><path d="m160 216c-1.4 0-2.784-.011-4.139-.021-12.455-.1-24.237-.19-32.544 8.051-4.855 4.818-7.317 11.537-7.317 19.97 0 21.153 16.705 60 44 60a44 44 0 0 0 0-88z" fill="url(#New_Gradient_Swatch_6-3)"/><path d="m352 152h-192a12 12 0 0 0 -12 12v112c0 30.709 14.357 59.3 40.428 80.505 20.534 16.703 47.057 27.495 67.572 27.495s47.038-10.792 67.572-27.5c26.071-21.2 40.428-49.791 40.428-80.5v-112a12 12 0 0 0 -12-12z" fill="url(#linear-gradient)"/><circle cx="308" cy="240" fill="#857a6b" r="12"/><circle cx="204" cy="240" fill="#857a6b" r="12"/><path d="m272 296h-19.056a20 20 0 0 1 -17.887-28.945l10.21-20.422a12 12 0 0 1 21.466 10.734l-7.316 14.633h12.583a12 12 0 0 1 0 24z" fill="#f9cc5c"/><path d="m361.606 238.219a6 6 0 0 0 -6.746 2.685c-12.681 21.05-42.4 59.855-69.839 77.395a70 70 0 0 0 -58.038 0c-27.243-17.505-55.265-56.515-67.843-77.393a6 6 0 0 0 -11.14 3.094v32c0 82.368 71.518 118 108 118 17.1 0 44.7-8.459 67.8-27.356 19.251-15.752 42.2-44.264 42.2-90.644v-32a6 6 0 0 0 -4.394-5.781z" fill="#f7f7f6"/><path d="m165.366 169.267-32-16a12 12 0 0 0 -17.366 10.733v32a11.992 11.992 0 0 0 2.016 6.656l32 48a12 12 0 0 0 21.984-6.656v-64a12 12 0 0 0 -6.634-10.733z" fill="url(#linear-gradient-2)"/><path d="m367.514 88.145c-18.829-21.33-45.581-32.145-79.514-32.145-51.771 0-91.162 19.177-119.925 33.179-16.335 7.953-30.443 14.821-40.075 14.821-15.6 0-35.329-10.221-41.6-14.15a12 12 0 0 0 -18.4 10.15c0 31.728 15.411 57.149 44.567 73.518 23.072 12.951 48.906 17.1 62.25 18.423 39.708 3.933 131.571 1.531 165.183.47v51.589a12 12 0 0 0 21.984 6.656l32-48a11.976 11.976 0 0 0 1.923-5.168c.345-2.76 8.032-68.081-28.393-109.343z" fill="url(#linear-gradient-3)"/></g><g fill="#c8def5"><path d="m102.369 302a42.047 42.047 0 0 1 -42-42 6.187 6.187 0 0 0 -12.369 0 42.047 42.047 0 0 1 -42 42 6 6 0 0 0 0 12 42.047 42.047 0 0 1 42 42 6 6 0 0 0 12 0 42.047 42.047 0 0 1 42-42h.369a6 6 0 1 0 0-12z"/><path d="m506 356a42.047 42.047 0 0 1 -42-42 6.187 6.187 0 0 0 -12.369 0 42.047 42.047 0 0 1 -42 42 6 6 0 0 0 0 12 42.047 42.047 0 0 1 42 42 6 6 0 0 0 12 0 42.047 42.047 0 0 1 42-42h.369a6 6 0 0 0 0-12z"/><path d="m394 432a42.047 42.047 0 0 1 -42-42 6.187 6.187 0 0 0 -12.369 0 42.047 42.047 0 0 1 -42 42 6 6 0 0 0 0 12 42.048 42.048 0 0 1 42 42 6 6 0 0 0 12 0 42.048 42.048 0 0 1 42-42h.369a6 6 0 0 0 0-12z"/></g></g></g></svg>