<svg height="512pt" viewBox="-96 0 512 512" width="512pt" xmlns="http://www.w3.org/2000/svg"><path d="m272 192v-144c0-26.507812-21.488281-48-48-48h-128c-26.507812 0-48 21.492188-48 48v144c-26.507812 0-48 21.492188-48 48v224c0 26.507812 21.492188 48 48 48h224c26.511719 0 48-21.492188 48-48v-224c0-26.507812-21.492188-48-48-48zm-192-144c0-8.835938 7.164062-16 16-16h128c8.835938 0 16 7.164062 16 16v144h-160zm208 416c0 8.835938-7.164062 16-16 16h-224c-8.835938 0-16-7.164062-16-16v-224c0-8.835938 7.164062-16 16-16h224c8.835938 0 16 7.164062 16 16zm0 0"/><path d="m160 272c-26.449219-.050781-47.929688 21.347656-47.976562 47.796875-.039063 20.347656 12.785156 38.5 31.976562 45.257813v66.945312h32v-66.945312c24.945312-8.785157 38.046875-36.128907 29.257812-61.074219-6.757812-19.195313-24.910156-32.019531-45.257812-31.980469zm0 64c-8.835938 0-16-7.164062-16-16s7.164062-16 16-16 16 7.164062 16 16-7.164062 16-16 16zm0 0"/></svg>